<?xml version="1.0" standalone="no"?>
<!DOCTYPE svg PUBLIC "-//W3C//DTD SVG 20010904//EN"
 "http://www.w3.org/TR/2001/REC-SVG-20010904/DTD/svg10.dtd">
<svg version="1.0" xmlns="http://www.w3.org/2000/svg"
 width="192.000000pt" height="192.000000pt" viewBox="0 0 192.000000 192.000000"
 preserveAspectRatio="xMidYMid meet">
<metadata>
Created by potrace 1.11, written by Peter Selinger 2001-2013
</metadata>
<g transform="translate(0.000000,192.000000) scale(0.100000,-0.100000)"
fill="#000000" stroke="none">
<path d="M737 1443 c-4 -3 -38 -5 -76 -5 -78 1 -107 -13 -97 -45 8 -24 29 -29
104 -28 28 0 52 -2 52 -6 0 -4 -11 -27 -25 -50 l-24 -44 -168 -1 c-92 0 -178
-4 -190 -8 -28 -9 -36 -32 -17 -51 16 -15 61 -18 252 -15 l82 1 -32 -58 c-55
-103 -46 -97 -150 -96 -106 1 -138 -8 -138 -36 0 -29 17 -35 100 -37 41 -1 78
-3 82 -3 4 -1 -13 -34 -37 -75 l-45 -74 -169 0 c-198 0 -239 -12 -195 -56 18
-18 10 -18 182 -18 72 0 132 -3 132 -5 0 -8 -73 -107 -84 -115 -6 -4 -39 -7
-74 -7 -67 0 -92 -11 -92 -42 0 -12 10 -21 30 -26 17 -4 272 -8 568 -7 593 0
583 -1 630 64 22 29 30 44 92 155 172 312 341 583 400 641 16 16 30 31 30 35
0 3 -154 5 -342 6 -189 0 -363 1 -388 2 -25 1 -118 1 -206 0 -89 -1 -166 1
-172 4 -5 4 -12 4 -15 0z"/>
</g>
</svg>
